<svg height="512pt" viewBox="0 0 512 512" width="512pt" xmlns="http://www.w3.org/2000/svg"><path d="m512 256c0 141.386719-114.613281 256-256 256s-256-114.613281-256-256 114.613281-256 256-256 256 114.613281 256 256zm0 0" fill="#60b2fc"/><path d="m512 256c0-3.71875-.097656-7.414062-.253906-11.097656l-128.839844-128.835938-110.625 71.542969-62.070312-62.074219-9.542969 75.128906-75.132813 9.546876 62.074219 62.070312-76.136719 128.25 109.003906 109c11.613282 1.617188 23.464844 2.46875 35.523438 2.46875 141.386719 0 256-114.613281 256-256zm0 0" fill="#3965cc"/><path d="m210.214844 125.535156-17.050782 41.574219-52.554687-52.554687c22.5-11.515626 50.765625-7.855469 69.605469 10.980468zm0 0" fill="#4bb3a4"/><path d="m167.871094 167.871094 62.839844 87.367187 38.316406-38.316406-41.726563-41.726563c2.171875-17.664062-3.527343-36.101562-17.089843-49.664062zm0 0" fill="#60d9ce"/><path d="m167.871094 167.871094 75.101562 75.101562-26.058594 26.058594-41.722656-41.726562c-17.660156 2.167968-36.097656-3.53125-49.660156-17.09375-18.835938-18.835938-22.496094-47.097657-10.976562-69.601563l40.289062 40.292969zm0 0" fill="#4bb3a4"/><path d="m301.785156 386.464844 17.050782-41.574219 52.554687 52.554687c-22.5 11.515626-50.765625 7.855469-69.605469-10.980468zm0 0" fill="#60d9ce"/><path d="m344.128906 344.128906-62.835937-87.367187-38.316407 38.316406 41.722657 41.726563c-2.167969 17.664062 3.53125 36.101562 17.089843 49.664062zm0 0" fill="#4bb3a4"/><path d="m344.128906 344.128906-75.101562-75.101562 26.058594-26.058594 41.726562 41.726562c17.660156-2.167968 36.09375 3.53125 49.65625 17.09375 18.835938 18.835938 22.496094 47.097657 10.980469 69.601563l-40.292969-40.292969zm0 0" fill="#60d9ce"/><path d="m389.421875 122.578125 6.515625 6.515625c10.746094 10.746094 10.746094 28.332031 0 39.082031l-15.816406 15.8125-42.40625-26.054687zm0 0" fill="#ff6126"/><path d="m382.90625 116.066406 6.515625 6.511719-43.53125 43.53125-17.878906-34.230469 15.8125-15.8125c10.75-10.75 28.335937-10.75 39.082031 0zm0 0" fill="#ff8151"/><path d="m354.066406 157.933594 26.054688 26.054687-26.054688 26.054688-42.40625-26.054688zm0 0" fill="#a3fdf6"/><path d="m328.011719 131.878906 26.054687 26.054688-34.230468 34.230468-17.878907-34.230468zm0 0" fill="#dbfffa"/><path d="m131.910156 371.914062 5.726563 22.078126-26.164063 6.539062zm0 0" fill="#000e0f"/><path d="m118.011719 374.367188 9.8125 9.8125-16.351563 16.351562zm0 0" fill="#116371"/><path d="m158.984375 344.839844 21.964844 38.316406-43.3125 10.835938-9.8125-9.8125zm0 0" fill="#ffa07d"/><path d="m128.839844 331.046875 26.058594 26.058594-27.074219 27.074219-9.8125-9.8125zm0 0" fill="#ffc0a8"/><path d="m328.011719 183.988281 26.054687 26.054688-173.117187 173.117187-26.054688-26.054687 74.292969-98.820313zm0 0" fill="#ffd15e"/><path d="m154.894531 357.109375-26.054687-26.054687 173.117187-173.117188 26.054688 26.054688zm0 0" fill="#ffea7c"/></svg>