<svg height="512" viewBox="0 0 512 512" width="512" xmlns="http://www.w3.org/2000/svg"><g id="BULINE"><circle cx="256" cy="256" fill="#a65c3b" r="256"/></g><g id="Icons"><path d="m102.81 453.8-17-6.55a255.38 255.38 0 0 1 -85.81-191.25c0-102.14 59.82-190.31 146.34-231.38 19.06 3.24 34.77 13.5 40.9 36.12 3.9 14.44 3.9 33.91-1.63 59.81 0 0-4.13 5-9.79 13.21-20.69 30.09-61.81 103.49 4.45 134.1a125.25 125.25 0 0 0 25 8.23q5.44 1.25 11.5 2.22l.12.31c.29.76 1.09 2.92 2.25 6.23a.14.14 0 0 0 0 .06c.26.78.55 1.63.86 2.53.89 2.64 1.93 5.79 3 9.36.81 2.57 1.65 5.36 2.51 8.33 5.48 18.85 11.8 45.28 13.51 71.43 4.13 61.67-17.47 121.79-136.21 77.24z" fill="#9e4830"/><path d="m461.74 278.07v27.06h-412.2v-27.06a205 205 0 0 1 27.23-102.45q3.72-6.47 7.87-12.63v-39.41a10.41 10.41 0 0 1 4-8.25l31.95-24.65a10.41 10.41 0 0 1 16.76 8.25v10.32a204.69 204.69 0 0 1 38.47-21.25c3.23-1.35 6.48-2.65 9.79-3.83v-15.45a20.36 20.36 0 0 1 20.39-20.36h101a20.34 20.34 0 0 1 20.34 20.36v16a206.61 206.61 0 0 1 34.17 16.41q5.49 3.3 10.78 6.93v-9.13a10.41 10.41 0 0 1 16.71-8.25l31.93 24.65a10.43 10.43 0 0 1 4.06 8.25v37a205.15 205.15 0 0 1 36.75 117.49z" fill="#f6c752"/><path d="m174 305.13h-124.46v-27.06a205 205 0 0 1 27.22-102.45c2.48-4.31 5.1-8.54 7.88-12.63v-39.42a10.34 10.34 0 0 1 4-8.23l31.95-24.65a10.41 10.41 0 0 1 16.76 8.23v10.34a204.94 204.94 0 0 1 23.76-14.41 208.46 208.46 0 0 0 12.89 210.28z" fill="#f4b62a"/><path d="m461.74 296.24v6.36q-150.11-26.52-298.11-14.52a1131.45 1131.45 0 0 0 -114.1 15.21v-6.36a1137.21 1137.21 0 0 1 114.1-15.21q147.99-12.12 298.11 14.52z" fill="#f4b62a"/><path d="m184.16 296.8-9-66.67a30.38 30.38 0 0 1 22.07-33.34l50.26-14.36a30.27 30.27 0 0 1 16.11 0l49.8 13.15a30.37 30.37 0 0 1 22.18 32.42l-7.09 68.82z" fill="#ddad43"/><path d="m206.83 287.44-6.1-45.44a20.69 20.69 0 0 1 15-22.71l33.57-9.79a20.67 20.67 0 0 1 11 0l34.61 9a20.69 20.69 0 0 1 15.09 22.05l-4.82 46.89z" fill="#c6983c"/><g fill="#ddad43"><path d="m185.61 84.17v74.19l-5.9 6.9a2.21 2.21 0 0 1 -3.89-1.43v-75.83c3.23-1.35 6.48-2.65 9.79-3.83z"/><path d="m372.24 108.11v44h-10.78v-50.93q5.54 3.3 10.78 6.93z"/><path d="m299 62.25h-84.57a12.41 12.41 0 0 0 -12.43 12.4v65.08a7.18 7.18 0 0 0 7.19 7.18 7.18 7.18 0 0 0 7.19-7.18v-42.4a18.38 18.38 0 0 1 18.39-18.33h45.88a18.37 18.37 0 0 1 18.35 18.33v42.4a7.18 7.18 0 0 0 7.19 7.18 7.18 7.18 0 0 0 7.19-7.18v-65.08a12.4 12.4 0 0 0 -12.38-12.4z"/></g><path d="m84.64 163v50.7l-4.78 9.94a1.62 1.62 0 0 1 -3.09-.7v-47.32q3.72-6.46 7.87-12.62z" fill="#c6983c"/><ellipse cx="426.99" cy="224.28" fill="#f4d387" rx="12.4" ry="21.26" transform="matrix(.989 -.147 .147 .989 -28.41 65.42)"/><ellipse cx="433.18" cy="265.81" fill="#f4d387" rx="8.37" ry="14.35" transform="matrix(.989 -.147 .147 .989 -34.46 66.79)"/><path d="m473.61 312.66v28.54a9 9 0 0 1 -10.89 8.8q-17.14-3.52-34.31-6.45c-7.21 18.58-81.33 33.18-171.72 33.18-7.46 0-14.81-.1-22-.3-80.67-2.15-143.91-16-149.84-33.21q-18.08 3.08-36.16 6.78a9 9 0 0 1 -10.88-8.82v-28.57a9 9 0 0 1 7.36-8.88 1135.58 1135.58 0 0 1 116.46-15.65l1.6-.13q150.39-12.09 303 15.81a9 9 0 0 1 7.38 8.9z" fill="#f7d58b"/><path d="m234.68 376.45c-80.67-2.15-143.91-16-149.84-33.21q-18.07 3.06-36.15 6.76a9 9 0 0 1 -10.88-8.82v-28.57a9 9 0 0 1 7.36-8.88 1135.58 1135.58 0 0 1 116.46-15.65l1.6-.13.4.13s12.57 55.45 71.05 88.37z" fill="#e0bf7c"/><ellipse cx="364.6" cy="313.67" fill="#f7e5bf" rx="12.4" ry="21.26" transform="matrix(.083 -.997 .997 .083 21.68 650.9)"/><ellipse cx="406.44" cy="317.16" fill="#f7e5bf" rx="8.37" ry="14.35" transform="matrix(.083 -.997 .997 .083 56.56 695.8)"/></g></svg>