<svg xmlns="http://www.w3.org/2000/svg" viewBox="0 0 369.97 87.78"><title>Fichier 2</title><g id="Calque_2" data-name="Calque 2"><g id="Calque_1-2" data-name="Calque 1"><path d="M54.82,47.12c-1.85,0-2.77-.94-2.77-2.83V3.1c0-1.89.9-2.84,2.7-2.84s2.71,1,2.71,2.84V42.37H79.11c1.67,0,2.5.79,2.5,2.38s-.83,2.37-2.5,2.37Z"/><path d="M105,47.72a21.06,21.06,0,0,1-11.25-2.94A19.52,19.52,0,0,1,86.4,36.5a28.62,28.62,0,0,1-2.61-12.67,28.92,28.92,0,0,1,2.58-12.68A19.07,19.07,0,0,1,93.73,2.9,21.43,21.43,0,0,1,105,0a21.6,21.6,0,0,1,11.39,2.9,19.36,19.36,0,0,1,7.39,8.22,28.4,28.4,0,0,1,2.61,12.64,28.51,28.51,0,0,1-2.64,12.7,19.67,19.67,0,0,1-7.43,8.32A21.19,21.19,0,0,1,105,47.72Zm0-4.82q7.47,0,11.56-5t4.09-14.05q0-9-4.09-14T105,4.82q-7.32,0-11.41,5t-4.1,14q0,9,4.1,14T105,42.9Z"/><path d="M156.26,47.72a22.56,22.56,0,0,1-11.75-2.91A19.05,19.05,0,0,1,137,36.56a28.74,28.74,0,0,1-2.61-12.73A28.64,28.64,0,0,1,137,11.15a19.16,19.16,0,0,1,7.49-8.25A22.65,22.65,0,0,1,156.26,0a25.39,25.39,0,0,1,7.79,1.19,19.69,19.69,0,0,1,6.4,3.36,2.83,2.83,0,0,1,1.29,1.85,2.58,2.58,0,0,1-.37,1.88,2.33,2.33,0,0,1-1.48,1.06,2.68,2.68,0,0,1-2.15-.63A17.52,17.52,0,0,0,156.39,5q-7.84,0-12,5t-4.16,13.93q0,9,4.16,14t12,5a17.93,17.93,0,0,0,11.49-3.83,2.79,2.79,0,0,1,2.14-.59,2.13,2.13,0,0,1,1.45,1,2.64,2.64,0,0,1,.37,1.78,2.78,2.78,0,0,1-1.13,1.78,19.87,19.87,0,0,1-6.53,3.6A25.17,25.17,0,0,1,156.26,47.72Z"/><path d="M178.37,47.59a2.29,2.29,0,0,1-2.18-1.06,2.86,2.86,0,0,1,.13-2.64L194.47,2.57A3.47,3.47,0,0,1,197.71.13a3.17,3.17,0,0,1,1.81.56,4.06,4.06,0,0,1,1.36,1.88l18.21,41.32a3,3,0,0,1,.2,2.64,2.14,2.14,0,0,1-2.11,1.06,2.85,2.85,0,0,1-1.92-.63,4.43,4.43,0,0,1-1.18-1.82l-4.29-9.9H185.56l-4.22,9.9C180.64,46.77,179.65,47.59,178.37,47.59ZM197.64,6.93l-10.1,23.76h20.33L197.77,6.93Z"/><path d="M242.13,47.72a33.61,33.61,0,0,1-8.95-1.16,21.63,21.63,0,0,1-7.22-3.4,2.72,2.72,0,0,1-1.26-1.71,2.85,2.85,0,0,1,.23-1.85,2.21,2.21,0,0,1,1.29-1.15,2.27,2.27,0,0,1,2,.42A19.2,19.2,0,0,0,234.54,42a28.91,28.91,0,0,0,7.59.92c4,0,6.89-.74,8.81-2.21a7,7,0,0,0,2.87-5.84,5.69,5.69,0,0,0-2.08-4.62q-2.08-1.73-7-2.71l-6.86-1.38q-6.21-1.32-9.27-4.33a10.68,10.68,0,0,1-3.07-8,12.45,12.45,0,0,1,2.14-7.26,14.09,14.09,0,0,1,6-4.81A21.32,21.32,0,0,1,242.52,0a25.28,25.28,0,0,1,7.76,1.16,20.45,20.45,0,0,1,6.5,3.46,2.75,2.75,0,0,1,1.09,1.68,2.51,2.51,0,0,1-.3,1.75,2.15,2.15,0,0,1-1.32,1,2.72,2.72,0,0,1-2.05-.5,16.84,16.84,0,0,0-5.51-2.9,21.37,21.37,0,0,0-6.23-.86,13.19,13.19,0,0,0-8.32,2.41A7.66,7.66,0,0,0,231,13.6a6.6,6.6,0,0,0,1.94,5c1.3,1.23,3.42,2.14,6.37,2.71l6.87,1.45q6.66,1.38,9.86,4.19a9.6,9.6,0,0,1,3.21,7.62,11.72,11.72,0,0,1-2.08,6.87,13.55,13.55,0,0,1-5.94,4.62A23.2,23.2,0,0,1,242.13,47.72Z"/><path d="M287.8,47.72a22.53,22.53,0,0,1-11.75-2.91,19,19,0,0,1-7.49-8.25A28.74,28.74,0,0,1,266,23.83a28.64,28.64,0,0,1,2.61-12.68,19.1,19.1,0,0,1,7.49-8.25A22.62,22.62,0,0,1,287.8,0a25.43,25.43,0,0,1,7.79,1.19A19.8,19.8,0,0,1,302,4.55a2.85,2.85,0,0,1,1.28,1.85,2.62,2.62,0,0,1-.36,1.88,2.35,2.35,0,0,1-1.48,1.06,2.67,2.67,0,0,1-2.15-.63A17.54,17.54,0,0,0,287.93,5q-7.86,0-12,5t-4.16,13.93q0,9,4.16,14t12,5a17.9,17.9,0,0,0,11.48-3.83,2.83,2.83,0,0,1,2.15-.59,2.13,2.13,0,0,1,1.45,1,2.58,2.58,0,0,1,.36,1.78,2.76,2.76,0,0,1-1.12,1.78,19.87,19.87,0,0,1-6.53,3.6A25.26,25.26,0,0,1,287.8,47.72Z"/><path d="M314.79,47.59c-1.8,0-2.71-1-2.71-2.84V3c0-1.89.91-2.84,2.71-2.84s2.71,1,2.71,2.84V44.75C317.5,46.64,316.59,47.59,314.79,47.59Z"/><path d="M348.58,47.72a21.06,21.06,0,0,1-11.25-2.94,19.45,19.45,0,0,1-7.39-8.28,28.62,28.62,0,0,1-2.61-12.67,29.07,29.07,0,0,1,2.57-12.68,19.13,19.13,0,0,1,7.36-8.25A23.68,23.68,0,0,1,360,2.9a19.36,19.36,0,0,1,7.39,8.22A28.4,28.4,0,0,1,370,23.76a28.65,28.65,0,0,1-2.64,12.7,19.73,19.73,0,0,1-7.43,8.32A21.19,21.19,0,0,1,348.58,47.72Zm0-4.82q7.46,0,11.55-5t4.09-14.05q0-9-4.09-14t-11.55-5q-7.32,0-11.42,5t-4.09,14q0,9,4.09,14T348.58,42.9Z"/><path d="M64,87.78a11.93,11.93,0,0,1-6.42-1.65,10.7,10.7,0,0,1-4.08-4.73,17.33,17.33,0,0,1-1.43-7.33,17.22,17.22,0,0,1,1.43-7.32A10.71,10.71,0,0,1,57.57,62,11.93,11.93,0,0,1,64,60.39a13.91,13.91,0,0,1,4.81.8,10.35,10.35,0,0,1,3.78,2.31.93.93,0,0,1,.36.88.76.76,0,0,1-.47.6c-.26.11-.55,0-.88-.26A10.89,10.89,0,0,0,64,61.94a9.26,9.26,0,0,0-7.54,3.18c-1.76,2.11-2.64,5.1-2.64,8.95s.88,6.84,2.64,9A9.24,9.24,0,0,0,64,86.23a10.88,10.88,0,0,0,7.64-2.82c.33-.3.63-.39.9-.26a.86.86,0,0,1,.49.63.84.84,0,0,1-.32.81A12,12,0,0,1,64,87.78Z"/><path d="M83.11,87.78a4.63,4.63,0,0,1-3.71-1.53,6.5,6.5,0,0,1-1.31-4.32V61.3c0-.56.27-.84.8-.84s.8.28.8.84V81.67q0,4.64,3.57,4.63a5.72,5.72,0,0,0,.64,0,3.27,3.27,0,0,1,.54,0c.43,0,.64.19.64.57a.7.7,0,0,1-.23.6,1.77,1.77,0,0,1-.76.31l-.51.06Z"/><path d="M95.34,87.78A8,8,0,0,1,91,86.61a7.77,7.77,0,0,1-2.85-3.31,13,13,0,0,1,0-10A7.77,7.77,0,0,1,91,70a8.61,8.61,0,0,1,8.7,0,7.77,7.77,0,0,1,2.85,3.31,13,13,0,0,1,0,10,7.77,7.77,0,0,1-2.85,3.31A8,8,0,0,1,95.34,87.78Zm0-1.48a5.93,5.93,0,0,0,4.81-2.11,8.91,8.91,0,0,0,1.77-5.91,8.9,8.9,0,0,0-1.77-5.9,6.51,6.51,0,0,0-9.6,0,8.85,8.85,0,0,0-1.78,5.9,8.86,8.86,0,0,0,1.78,5.91A6,6,0,0,0,95.34,86.3Z"/><path d="M115.22,87.78A6.28,6.28,0,0,1,110.33,86a7.61,7.61,0,0,1-1.61-5.24V69.7c0-.56.26-.84.8-.84s.79.28.79.84V80.6a6.63,6.63,0,0,0,1.18,4.3,4.63,4.63,0,0,0,3.73,1.4,5.87,5.87,0,0,0,4.5-1.84,6.81,6.81,0,0,0,1.73-4.85V69.7c0-.56.26-.84.8-.84s.79.28.79.84V86.87c0,.56-.25.84-.76.84s-.79-.28-.79-.84V84.06a6.19,6.19,0,0,1-2.55,2.77A7.33,7.33,0,0,1,115.22,87.78Z"/><path d="M136.46,87.78a7.91,7.91,0,0,1-4.31-1.15,7.65,7.65,0,0,1-2.85-3.31,11.63,11.63,0,0,1-1-5,10.27,10.27,0,0,1,2.2-6.93,7.47,7.47,0,0,1,6-2.57,7.56,7.56,0,0,1,4,1A6.43,6.43,0,0,1,143,72.7V61.3c0-.56.27-.84.8-.84s.8.28.8.84V86.87c0,.56-.27.84-.8.84s-.8-.28-.8-.84v-3a6.43,6.43,0,0,1-2.54,2.87A7.56,7.56,0,0,1,136.46,87.78Zm0-1.48a5.91,5.91,0,0,0,4.8-2.11,8.91,8.91,0,0,0,1.77-5.91,8.9,8.9,0,0,0-1.77-5.9,6.5,6.5,0,0,0-9.59,0,8.85,8.85,0,0,0-1.79,5.9,8.86,8.86,0,0,0,1.79,5.91A5.93,5.93,0,0,0,136.5,86.3Z"/><path d="M52.8,24.94H12v-1.2H52.8Z"/><rect y="18.32" width="12" height="12.04" rx="1.6"/><path d="M39.73,33.34h-1.2v-8.4h1.2Z"/><rect x="33.13" y="33.34" width="12" height="12.04" rx="1.6"/><rect x="17.86" y="3.3" width="12" height="12.04" rx="1.6"/><path d="M24.46,23.74h-1.2v-8.4h1.2Z"/></g></g></svg>