<svg xmlns="http://www.w3.org/2000/svg" xmlns:xlink="http://www.w3.org/1999/xlink" width="828" height="440.64" viewBox="0 0 828 440.64">
  <defs>
    <linearGradient id="linear-gradient" x1="0.5" y1="1" x2="0.5" y2="-0.001" gradientUnits="objectBoundingBox">
      <stop offset="0" stop-color="gray" stop-opacity="0.251"/>
      <stop offset="0.54" stop-color="gray" stop-opacity="0.122"/>
      <stop offset="1" stop-color="gray" stop-opacity="0.102"/>
    </linearGradient>
  </defs>
  <g id="undraw_programming_2svr" transform="translate(-0.011 -0.035)">
    <path id="Tracé_236" data-name="Tracé 236" d="M843.89,521.372q-1.384,2.982-2.759,5.884-2.147,4.509-4.238,8.842c-.62,1.28-1.24,2.537-1.845,3.793-6.839,13.971-13.224,26.328-18.647,36.491a58.215,58.215,0,0,1-50.74,30.773l-120.589,1.312H643.8l-10.337.111-8.842.1-27.116.294h-1.1l-13.8.151h-.421l-85.084.922-75.947.8-8.834.1-54.867.6h-.064l-35.584.382h-.382L208.9,613.128l-33.66.366a70.03,70.03,0,0,1-21.207-3.038,68.695,68.695,0,0,1-31.083-19.681A158.989,158.989,0,0,1,90.88,536.1q-1.535-4.366-2.863-8.842c-24.5-82.818,5.367-189.666,59.121-261.168q3.379-4.485,6.87-8.747l.056-.064c16.532-20.293,35.067-37.246,54.812-49.3,34.988-21.4,73.753-27.426,111.882-9.463,32.26,15.2,62.382,22.352,91.581,24.293,2.95.191,5.9.334,8.834.421,66.978,2.107,129.749-22.026,203.462-37.6,2.934-.62,5.876-1.233,8.842-1.813,52.585-10.465,110.919-15.983,180.291-4.381a150.359,150.359,0,0,1,21.279,5.089q4.588,1.479,8.842,3.181c33.111,13.47,51.17,38.359,58.843,69.546q1.089,4.342,1.885,8.834C918.223,341.1,878.376,447.508,843.89,521.372Z" transform="translate(-79.34 -172.91)" fill="#2900ff" opacity="0.1"/>
    <g id="Groupe_128" data-name="Groupe 128" transform="translate(8.678 10.877)" opacity="0.1">
      <path id="Tracé_237" data-name="Tracé 237" d="M228.107,217V622.238l-33.66.366a70.034,70.034,0,0,1-21.207-3.038V266.3h.056C189.827,245.984,208.363,229.031,228.107,217Z" transform="translate(-107.248 -192.811)" fill="#2900ff"/>
      <path id="Tracé_238" data-name="Tracé 238" d="M922.118,287.811H164.6q3.379-4.485,6.87-8.747V279H920.233Q921.323,283.318,922.118,287.811Z" transform="translate(-105.479 -205.51)" fill="#2900ff"/>
      <path id="Tracé_239" data-name="Tracé 239" d="M1038.542,190.683V530.223h-2.759q-2.147,4.509-4.238,8.842c-.62,1.28-1.24,2.537-1.845,3.793V187.47Q1034.288,188.949,1038.542,190.683Z" transform="translate(-282.67 -186.762)" fill="#2900ff"/>
      <path id="Tracé_240" data-name="Tracé 240" d="M773.932,186.58V611.4l-8.842.1V188.393C768.024,187.773,770.966,187.16,773.932,186.58Z" transform="translate(-228.472 -186.58)" fill="#2900ff"/>
      <path id="Tracé_241" data-name="Tracé 241" d="M506.944,236.041V623.754l-8.834.1V235.62C501.06,235.811,504.01,235.922,506.944,236.041Z" transform="translate(-173.789 -196.624)" fill="#2900ff"/>
      <path id="Tracé_242" data-name="Tracé 242" d="M843.363,618.52q-2.147,4.509-4.238,8.842H93.113Q91.578,623,90.25,618.52Z" transform="translate(-90.25 -275.051)" fill="#2900ff"/>
    </g>
    <rect id="Rectangle_651" data-name="Rectangle 651" width="15.108" height="45.85" transform="translate(168.262 211.389)" fill="#3f3d56"/>
    <rect id="Rectangle_652" data-name="Rectangle 652" width="15.108" height="48.506" transform="translate(574.86 209.004)" fill="#3f3d56"/>
    <path id="Tracé_243" data-name="Tracé 243" d="M708.049,527.813V538.15l-120.8,1.113-1.288.024-45.914.421-1.1.016-13.955.119h-.414l-85.068.787-139.641,1.3h-.119l-35.5.334-.382.008L106.1,543.716V531.788l37.1-22.265,74.429-.62,1.59-.008.525-.008,1.59-.024,35.735-.294,1.6-.008.509-.008,1.59-.008,11.459-.1.3-.008,28.269-.239h.231L521.6,506.343l5.4-.04h.541l4.119-.04,29.938-.246,1.59-.024,1.471-.016h.763l9.312-.072,1.845-.024,2.473-.016,7.753-.072,12.3-.1,1.59-.016,2.767-.016h.517l59.408-.509Z" transform="translate(-21.729 -103.459)" fill="#65617d"/>
    <path id="Tracé_244" data-name="Tracé 244" d="M708.049,527.813V538.15l-120.8,1.113-1.288.024-45.914.421-1.1.016-13.955.119h-.414l-85.068.787-139.641,1.3h-.119l-35.5.334-.382.008L106.1,543.716V531.788l37.1-22.265,74.429-.62,1.59-.008.525-.008,1.59-.024,35.735-.294,1.6-.008.509-.008,1.59-.008,11.459-.1.3-.008,28.269-.239h.231L521.6,506.343l5.4-.04h.541l4.119-.04,29.938-.246,1.59-.024,1.471-.016h.763l9.312-.072,1.845-.024,2.473-.016,7.753-.072,12.3-.1,1.59-.016,2.767-.016h.517l59.408-.509Z" transform="translate(-21.729 -103.459)" opacity="0.2"/>
    <path id="Tracé_245" data-name="Tracé 245" d="M365.779,656.57v19.474A4.874,4.874,0,0,1,363,680.449a4.77,4.77,0,0,1-1.988.477l-27.752.588a4.772,4.772,0,0,1-2.147-.453,4.866,4.866,0,0,1-2.839-4.429V656.57Z" transform="translate(-130.324 -271.967)" fill="#3f3d56"/>
    <path id="Tracé_246" data-name="Tracé 246" d="M365.779,656.57v19.474A4.874,4.874,0,0,1,363,680.449a4.77,4.77,0,0,1-1.988.477l-27.752.588a4.772,4.772,0,0,1-2.147-.453,4.866,4.866,0,0,1-2.839-4.429V656.57Z" transform="translate(-130.324 -271.967)" opacity="0.1"/>
    <path id="Tracé_247" data-name="Tracé 247" d="M367.779,656.57v19.474A4.874,4.874,0,0,1,365,680.449a4.77,4.77,0,0,1-1.988.477l-27.752.588a4.772,4.772,0,0,1-2.147-.453,4.866,4.866,0,0,1-2.839-4.429V656.57Z" transform="translate(-130.734 -271.967)" fill="#3f3d56"/>
    <rect id="Rectangle_653" data-name="Rectangle 653" width="37.509" height="25.048" transform="translate(541.463 384.603)" fill="#3f3d56"/>
    <rect id="Rectangle_654" data-name="Rectangle 654" width="37.509" height="25.048" transform="translate(541.463 384.603)" opacity="0.1"/>
    <rect id="Rectangle_655" data-name="Rectangle 655" width="37.509" height="25.048" transform="translate(539.872 384.603)" fill="#3f3d56"/>
    <path id="Tracé_248" data-name="Tracé 248" d="M226.708,265.82v4.556l-15.108-.39V265.82Z" transform="translate(-43.338 -54.439)" opacity="0.1"/>
    <path id="Tracé_249" data-name="Tracé 249" d="M390.417,273.765,372.263,404.174a3.419,3.419,0,0,1-3.475,2.95l-145.359-3.769-2.759-.072a3.419,3.419,0,0,1-3.308-3.872l20.38-136.516a3.419,3.419,0,0,1,3.61-2.887l145.883,9.876a3.411,3.411,0,0,1,3.181,3.88Z" transform="translate(-107.602 -190.741)" fill="#65617d"/>
    <path id="Tracé_250" data-name="Tracé 250" d="M171.971,99.16,156.6,219.494l133.59,4.238,16.428-116.1Z" transform="translate(-32.073 -20.303)" fill="#2900ff"/>
    <rect id="Rectangle_656" data-name="Rectangle 656" width="162.749" height="137.828" rx="5.33" transform="translate(305.828 76.996)" fill="#65617d"/>
    <rect id="Rectangle_657" data-name="Rectangle 657" width="147.903" height="114.768" transform="translate(313.509 86.276)" fill="#2900ff"/>
    <path id="Tracé_251" data-name="Tracé 251" d="M738.038,262.82v3.014l-15.108.31V262.82Z" transform="translate(-148.07 -53.824)" opacity="0.1"/>
    <path id="Tracé_252" data-name="Tracé 252" d="M864.1,396.556a2.449,2.449,0,0,1-2.386,2.608L712.86,402.242a2.449,2.449,0,0,1-2.489-2.219L697.577,267.006a2.449,2.449,0,0,1,2.322-2.68l147.728-7.347,1.59-.08a2.441,2.441,0,0,1,2.561,2.227Z" transform="translate(-205.964 -190.105)" fill="#65617d"/>
    <path id="Tracé_253" data-name="Tracé 253" d="M628.93,101.452,763.848,94.82l11.395,120.867L641.39,218.868Z" transform="translate(-128.817 -19.414)" fill="#2900ff"/>
    <path id="Tracé_254" data-name="Tracé 254" d="M902.756,396.556a2.449,2.449,0,0,1-2.386,2.608L886.28,256.979l1.59-.08a2.441,2.441,0,0,1,2.561,2.227Z" transform="translate(-244.617 -190.105)" opacity="0.1"/>
    <path id="Tracé_255" data-name="Tracé 255" d="M241.377,260,223.429,403.352l-2.759-.072a3.419,3.419,0,0,1-3.308-3.872l20.38-136.516A3.419,3.419,0,0,1,241.377,260Z" transform="translate(-107.602 -190.738)" opacity="0.1"/>
    <rect id="Rectangle_658" data-name="Rectangle 658" width="15.108" height="13.582" transform="translate(168.262 243.658)" opacity="0.1"/>
    <path id="Tracé_256" data-name="Tracé 256" d="M288.439,483.65V487.6l-37.509,1V483.65Z" transform="translate(-51.394 -99.055)" opacity="0.1"/>
    <path id="Tracé_257" data-name="Tracé 257" d="M419.828,484.461V618.21a3.181,3.181,0,0,1-3.061,3.141l-152.4,4.055h-.04a3.181,3.181,0,0,1-3.141-3.141v-137.8a3.181,3.181,0,0,1,3.141-3.141H416.687a3.181,3.181,0,0,1,3.141,3.141Z" transform="translate(-116.585 -236.072)" fill="#65617d"/>
    <path id="Tracé_258" data-name="Tracé 258" d="M264.371,481.32V625.406h-.04a3.181,3.181,0,0,1-3.141-3.141v-137.8a3.181,3.181,0,0,1,3.141-3.141Z" transform="translate(-116.585 -236.072)" opacity="0.1"/>
    <path id="Tracé_259" data-name="Tracé 259" d="M194.6,319.15H335.744V437.035L194.6,440.216Z" transform="translate(-39.856 -65.362)" fill="#d4dfec"/>
    <rect id="Rectangle_659" data-name="Rectangle 659" width="15.108" height="13.852" transform="translate(574.86 243.658)" opacity="0.1"/>
    <path id="Tracé_260" data-name="Tracé 260" d="M716.439,483.65v5.1l-37.509-1v-4.1Z" transform="translate(-139.058 -99.055)" opacity="0.1"/>
    <path id="Tracé_261" data-name="Tracé 261" d="M826.82,484.461v137.8a3.181,3.181,0,0,1-3.181,3.141h0l-152.428-4.055a3.181,3.181,0,0,1-3.061-3.141V484.461a3.181,3.181,0,0,1,3.141-3.141H823.647A3.181,3.181,0,0,1,826.82,484.461Z" transform="translate(-199.939 -236.072)" fill="#65617d"/>
    <path id="Tracé_262" data-name="Tracé 262" d="M866.871,484.461v137.8a3.181,3.181,0,0,1-3.181,3.141h0V481.32h0a3.181,3.181,0,0,1,3.181,3.141Z" transform="translate(-239.99 -236.072)" opacity="0.1"/>
    <path id="Tracé_263" data-name="Tracé 263" d="M739.244,319.15H598.1V437.035l141.144,3.181Z" transform="translate(-122.502 -65.362)" fill="#d4dfec"/>
    <path id="Tracé_264" data-name="Tracé 264" d="M622.328,484.461V618.21a3.181,3.181,0,0,1-3.061,3.141l-152.4,4.055h0a3.181,3.181,0,0,1-3.181-3.141v-137.8a3.181,3.181,0,0,1,3.141-3.141H619.187A3.181,3.181,0,0,1,622.328,484.461Z" transform="translate(-158.061 -236.072)" fill="#65617d"/>
    <path id="Tracé_265" data-name="Tracé 265" d="M397.1,319.15H538.244V437.035L397.1,440.216Z" transform="translate(-81.333 -65.362)" fill="#d4dfec"/>
    <path id="Tracé_266" data-name="Tracé 266" d="M708.049,533.65v10.337l-120.8,1.113-1.288.024-45.914.421-1.1.016-13.955.119h-.414l-85.068.787-139.641,1.3h-.119l-35.5.334-.382.008L106.1,549.554V537.626l161.031-1.058h.382l32.594-.223h.151l225.1-1.487h.231l.135-.008h.374l3.809-.024h1.161l59.233-.4,3.5-.016.779-.008Z" transform="translate(-21.729 -109.296)" opacity="0.1"/>
    <circle id="Ellipse_1" data-name="Ellipse 1" cx="40.816" cy="40.816" r="40.816" transform="translate(346.644 175.606)" fill="#fbbebe"/>
    <path id="Tracé_267" data-name="Tracé 267" d="M383.74,647.85a.988.988,0,0,1,.08-.278c.8-2.855,2.211-7.681,3.268-11.538.135-.477.262-.946.382-1.392,1.169-4.35,3.443-14.536,4.707-20.889.445-2.234.8-3.976.867-4.851.159-1.344,2.552-7.093,5.264-13.7,1.9-4.644,3.976-9.717,5.495-14a48.8,48.8,0,0,0,2.33-7.833,4.054,4.054,0,0,0,0-1.694,11.681,11.681,0,0,1-.382-2.783h0c-.183-4.93,1.288-12.723,3.562-15.991,2.783-3.976,4.771-18.814,4.771-18.814s4.119.6,4.771-2.807a4.891,4.891,0,0,0,.079-1.113,5.886,5.886,0,0,0-.072-.883c-.708-4.962,11.705-10.242,18.687-11.379a15.63,15.63,0,0,1,2.385-.223,21.657,21.657,0,0,0,4.97-1.145q1.113-.342,2.385-.8c2.926-.986,6.425-2.29,10.139-3.721C471.392,506.611,488.3,499.3,488.3,499.3c.119-.565.254-1.105.406-1.638a22.034,22.034,0,0,1,13-15.053h0v-1.59c0-2.743-.119-5.566-.239-8.381,0-.549-.048-1.1-.079-1.646v-.9c0-.557-.056-1.113-.087-1.662l-.143-.111a13.048,13.048,0,0,1-3.1-3.34,12.136,12.136,0,0,1-1.129-2.386c-.994-2.7-1.224-5.7-1.892-8.548l-.143-.588a66.8,66.8,0,0,0-3.181-8.413c-1.757-4.31-3.109-8.747-4.453-13.24q-1.225-4.079-2.473-8.174l-1.256-4.167c-.239-.8-.477-1.59-.66-2.386h0a10.564,10.564,0,0,1-.207-1.113h0a7.952,7.952,0,0,1,.191-3.666,25.538,25.538,0,0,1,1.05-2.386,6.259,6.259,0,0,0,.4-1.1h0a2.4,2.4,0,0,0,.064-.254,4.494,4.494,0,0,0,.087-.859,14.678,14.678,0,0,0-.414-3.093.056.056,0,0,1,0-.04,2.033,2.033,0,0,0-.04-.215,20.278,20.278,0,0,1-.286-2.385,22.623,22.623,0,0,1,2.759-12.381l.151-.286a20.056,20.056,0,0,1,1.463-2.211h0a11.179,11.179,0,0,1,.8-.97c-1.113,1.066-2.942.6-3.976-.549a2.869,2.869,0,0,1-.437-.6,3.042,3.042,0,0,1-.183-.358c-.04-.1-.072-.2-.1-.3-.557-1.948.413-4.024,1.686-5.606a14.7,14.7,0,0,1,4.564-3.737h0a3.063,3.063,0,0,1,.318-.167,13.61,13.61,0,0,1,2.1-.843h0a11.969,11.969,0,0,1,1.3-.35l-2.95-.27L490,373.236a11.522,11.522,0,0,1,10.337-8.675h.859a9.329,9.329,0,0,1,1.248.1,3.531,3.531,0,0,1-2.107-3.443,11.459,11.459,0,0,0,7.308,2.433h.3a23.844,23.844,0,0,1-.27-2.6h0a26.379,26.379,0,0,1,0-3.547,6.711,6.711,0,0,0,5.391,1.8L511.414,357a7.546,7.546,0,0,0,5.216,1.63l.382-.04a5.563,5.563,0,0,0,.946-.183h.072c-.151-.191-.286-.39-.421-.6l-.048-.1a7.694,7.694,0,0,1-.8-1.662,5.242,5.242,0,0,1-.191-.692h0a6.958,6.958,0,0,1,.358-4.334c2.568,2.147,5.383,5.081,8.747,2.863s3.475-6.29,8.747-5.876a8.111,8.111,0,0,1,6.687,4.866,5.368,5.368,0,0,1,6.1-1.392,5.447,5.447,0,0,1,3.085,5.479c2.187-.549,4.54-1.089,6.64-.262s3.451,3.507,2.258,5.3a1.138,1.138,0,0,1-.111.159c-.978,1.264-3.141,1.956-2.91,3.547l.334.239,1.034.747q6.083,4.389,11.848,9.224c1.972,1.654,4.071,3.642,4.206,6.226a6.874,6.874,0,0,1-.191,1.885h0c-.127.62-.3,1.24-.437,1.861a15.516,15.516,0,0,0-.27,4.811h0c.056.469.127.93.215,1.4,1.217,6.147,6.131,11.22,6.616,17.494v.445a14.129,14.129,0,0,1-.056,2.012c-.366,3.817-2.131,7.483-3.562,11.132-.087.223-.175.445-.254.668a110.775,110.775,0,0,0-5.566,22.392,79.717,79.717,0,0,1-1.59,8.023,21.255,21.255,0,0,1-4.047,8.294,12.9,12.9,0,0,1-2.672,2.386,14.842,14.842,0,0,1-2.107,1.121v.048c.087.485.159.97.247,1.455.048.254.087.509.135.8h0a.11.11,0,0,0,0,.048c.668,3.761,1.431,7.443,2.234,10.942l.406,1.741c10.019,3.618,11.2,11.029,11.276,13.868a7.669,7.669,0,0,1,0,1.137s15.108.4,21.072,4.771a16.173,16.173,0,0,0,3.586,1.829,66,66,0,0,0,7.355,2.3c1.28.334,2.616.66,3.976.978,2.386.549,4.914,1.081,7.355,1.59,6.513,1.312,12.643,2.386,15.753,3.181,7.419,1.877,24.388,18.146,24.388,18.146s1.988,16.412,3.976,18.806S667,558.5,667,558.5L680.15,581.89l5.566,9.836h3.578a6.083,6.083,0,0,1,2.553,1.67c.946.843,2,1.893,2.918,2.847l1.527,1.63.954,1.058s5.781.143,7.347,4.715c4.707-.135,10.488.175,14.536,1.988a11.245,11.245,0,0,1,1.59.859,6.9,6.9,0,0,1,3.284,4.5,6.646,6.646,0,0,1,.143,1.145c0,.453,0,.907,0,1.352-.286,6.019-4.206,11.029-7.809,14.4l.254.453s-.119.286-.35.8c-.064.151-.143.318-.231.509h0c-.469,1-1.217,2.5-2.195,4.262a50.346,50.346,0,0,1-7.61,10.472l-.231.239-45.914.421-.135-.159-8.906-10.624-4.429-5.28-.135-.167-.127,1.264-.429,4.214-1.034,10.186-.056.509v.135l-.119,1.177.087-1.177h-.231l-85.084.8L419.817,647.46v.668h-.111v-.668l-35.584.382Z" transform="translate(-141.686 -208.762)" fill="url(#linear-gradient)"/>
    <path id="Tracé_268" data-name="Tracé 268" d="M599.375,527.534s-79.12,9.542-71.566,0c2.735-3.451,3.491-13.677,3.34-25.326-.048-3.539-.175-7.2-.358-10.854-.875-17.494-2.982-34.59-2.982-34.59s69.18-32.6,61.229-6.759c-3.181,10.441-2.139,25.1.278,38.868.708,4.016,1.527,7.952,2.386,11.689A274.065,274.065,0,0,0,599.375,527.534Z" transform="translate(-171.09 -227.617)" fill="#fbbebe"/>
    <path id="Tracé_269" data-name="Tracé 269" d="M599.375,542.636s-79.12,9.542-71.566,0c2.735-3.451,3.491-13.677,3.34-25.326,12.063-5.153,27.41-1.312,27.41-1.312,16.158-3.22,26.519-2.592,33.143-.334A274.065,274.065,0,0,0,599.375,542.636Z" transform="translate(-171.09 -242.719)" opacity="0.1"/>
    <path id="Tracé_270" data-name="Tracé 270" d="M419.881,682.489v-.668L559.53,680.3l85.084-.8h.239l-.087,1.177.119-1.177h.151v-.135l1.089-10.7.414-4.047.127-1.264.111-1.058,4.914-16.389,4.914-16.365,4.135-13.78,6.314-21.056s-3.578-8.349-5.566-10.735-3.976-18.687-3.976-18.687-16.969-16.166-24.388-18.027c-3.109-.8-9.248-1.853-15.768-3.181-2.441-.493-4.946-1.018-7.355-1.59-1.36-.31-2.7-.636-3.976-.962a69.9,69.9,0,0,1-7.355-2.274,16.456,16.456,0,0,1-3.578-1.821c-5.845-4.286-20.492-4.771-21.056-4.771h0a.34.34,0,0,1,0-.056v-.072a8.154,8.154,0,0,0,0-1,6.385,6.385,0,0,0-.072-1.113,1,1,0,0,0-.056-.4c-.04-.286-.087-.588-.159-.906a3.964,3.964,0,0,0-.1-.421,13.689,13.689,0,0,0-.994-2.775c-.056-.127-.127-.262-.191-.39a14.512,14.512,0,0,0-1.352-2.091c-.1-.135-.215-.278-.334-.414a15.565,15.565,0,0,0-2.163-2.1c-.215-.167-.437-.342-.668-.5a3.717,3.717,0,0,0-.406-.286l-.708-.461-.66-.382c-.581-.318-1.193-.628-1.861-.922-.207-.1-.429-.183-.652-.27s-.573-.223-.867-.334h-.048l-.6-.238c-.453-.151-.914-.286-1.4-.421l-.74-.191-.8-.183-.8-.167c-.8-.159-1.646-.3-2.537-.413l-.907-.111-.93-.1-.962-.079-1.368-.08-1.59-.056a99.166,99.166,0,0,0-20.875,2.22,57.468,57.468,0,0,0-14.511-1.338h-.692l-.8.048h-.509l-1.026.1a7.621,7.621,0,0,0-1.034.119c-.342.048-.7.087-1.042.143l-.525.087c-.517.087-1.042.183-1.59.294q-.262.048-.525.119c-.692.151-1.384.334-2.067.541-.342.1-.684.207-1.026.326-.175.048-.342.111-.509.175l-.509.183-.5.2-.6.239c-.3.127-.6.262-.891.406-.167.072-.334.151-.493.239s-.326.159-.477.247A22.065,22.065,0,0,0,495,523.565l-.406.39-.4.406c-.135.135-.262.278-.39.422a18.936,18.936,0,0,0-1.447,1.789c-.127.167-.247.334-.366.509a21.228,21.228,0,0,0-1.368,2.322c-.1.191-.2.39-.294.581a26,26,0,0,0-1.59,4.175q-.223.8-.406,1.59s-16.834,7.427-30.8,12.8c-3.713,1.431-7.212,2.727-10.139,3.706-.851.286-1.646.549-2.386.8a21.23,21.23,0,0,1-4.97,1.145,15.638,15.638,0,0,0-2.386.223c-6.417,1.042-17.414,5.566-18.615,10.107a2.934,2.934,0,0,0-.08,1.113s0,.056,0,.087c.8,5.566-4.771,4.771-4.771,4.771s-1.988,14.711-4.771,18.687c-2.012,2.863-3.387,9.248-3.562,14.067h0a15.594,15.594,0,0,0,.35,4.477v.111c.318,1.066-.445,3.976-1.741,7.705-1.407,4.1-3.459,9.184-5.431,13.987-2.974,7.252-5.773,13.836-5.948,15.283-.072.644-.278,1.8-.565,3.284-1.161,6.059-3.737,17.6-5.01,22.265-.946,3.483-2.322,8.254-3.268,11.53a1.116,1.116,0,0,1-.08.278l35.648-.35v.668h.111Z" transform="translate(-141.774 -243.122)" fill="#2900ff"/>
    <path id="Tracé_271" data-name="Tracé 271" d="M445.44,607.57s45.325,23.458,61.626,20.675Z" transform="translate(-154.323 -261.931)" opacity="0.1"/>
    <path id="Tracé_272" data-name="Tracé 272" d="M561.44,595.57s44.132,14.313,58.843,16.3S561.44,595.57,561.44,595.57Z" transform="translate(-178.083 -259.473)" opacity="0.1"/>
    <path id="Tracé_273" data-name="Tracé 273" d="M601.043,533.579c-23.06,4.246-66.477,3.332-85.243,2.688C522.678,511.616,556.219,520,556.219,520,597.735,511.711,600.916,528.9,601.043,533.579Z" transform="translate(-168.735 -243.538)" opacity="0.1"/>
    <path id="Tracé_274" data-name="Tracé 274" d="M601.043,531.579c-23.06,4.246-66.477,3.332-85.243,2.688C522.678,509.616,556.219,518,556.219,518,597.735,509.711,600.916,526.9,601.043,531.579Z" transform="translate(-168.735 -243.129)" fill="#2900ff"/>
    <path id="Tracé_275" data-name="Tracé 275" d="M776.94,672.138s27.163-4.175,27.7,7.753-13.852,20.261-13.852,20.261Z" transform="translate(-222.222 -275.011)" fill="#fbbebe"/>
    <path id="Tracé_276" data-name="Tracé 276" d="M589.435,488.872a37.4,37.4,0,0,1-3.578,1.384c-8.572,2.958-17.216,5.94-26.241,7.021s-18.5.127-26.368-4.373a22.883,22.883,0,0,1-2.385-1.551c-.875-17.494-2.982-34.59-2.982-34.59s69.18-32.6,61.229-6.759C585.944,460.445,587.017,475.108,589.435,488.872Z" transform="translate(-171.209 -227.617)" opacity="0.1"/>
    <path id="Tracé_277" data-name="Tracé 277" d="M543.385,362.18a7.531,7.531,0,0,1-6.616-1.392l1.654,2.3a6.735,6.735,0,0,1-5.391-1.789,27.1,27.1,0,0,0,.255,6.163,11.546,11.546,0,0,1-7.6-2.386,3.515,3.515,0,0,0,2.1,3.427,11.4,11.4,0,0,0-12.4,8.516l4.151.382a14.686,14.686,0,0,0-8.3,5.065c-1.272,1.59-2.242,3.626-1.686,5.566s3.244,3.181,4.707,1.8A22.217,22.217,0,0,0,509.4,407.95a11.505,11.505,0,0,1,.366,4.183,35.487,35.487,0,0,1-1.5,3.729c-.8,2.322-.04,4.843.668,7.157l3.729,12.262c1.352,4.429,2.7,8.866,4.461,13.152a65.264,65.264,0,0,1,3.181,8.357c1,3.849,1.042,8.063,3.181,11.427a15.849,15.849,0,0,0,5.709,5.034c7.864,4.5,17.367,5.455,26.368,4.373s17.637-4.063,26.2-7.021a24.652,24.652,0,0,0,5.439-2.386c5.924-3.88,7.244-11.816,8.349-18.806a106.783,106.783,0,0,1,5.8-22.9c1.734-4.366,3.976-8.795,3.594-13.47-.485-6.21-5.4-11.244-6.616-17.351a15.109,15.109,0,0,1,.056-6.179,14.041,14.041,0,0,0,.628-3.737c-.135-2.56-2.234-4.533-4.207-6.179q-6.417-5.36-13.248-10.131c-.231-1.59,1.932-2.274,2.91-3.531,1.384-1.773-.048-4.588-2.147-5.415s-4.453-.286-6.64.262a5.24,5.24,0,0,0-9.184-4.063,8.111,8.111,0,0,0-6.7-4.835c-5.272-.413-5.375,3.618-8.747,5.837s-6.155-.708-8.747-2.839A7.379,7.379,0,0,0,543.385,362.18Z" transform="translate(-167.121 -209.554)" fill="#3f3d56"/>
    <path id="Tracé_278" data-name="Tracé 278" d="M782.335,682.915s-.708,1.686-2.012,4.127a54.865,54.865,0,0,1-7.157,10.472l-.215.231h-1.288l-45.914.422h-1.1l-.135-.159-8.906-10.568-3.356-3.984-.135-.167-.286-.334-.159-.191-.207-.246-6.528-7.745,2.385-9.94,4.063-16.746.1-.406.8-3.181.565-2.386,1.893-7.777,6.489-26.758,11.53,5.964,12.158,21.47,6.528,11.53h3.578c.676,0,2.227,1.3,3.785,2.807.557.533,1.113,1.1,1.59,1.59,1.415,1.463,2.537,2.719,2.537,2.719s5.8.127,7.355,4.692a5.557,5.557,0,0,1,.2.676,32.046,32.046,0,0,0,2.012,5.216c1.026,2.234,2.314,4.771,3.618,7.308,2.425,4.652,4.89,9.081,5.8,10.687l.111.2Z" transform="translate(-207.475 -261.933)" fill="#2900ff"/>
    <path id="Tracé_279" data-name="Tracé 279" d="M657.5,654.786l-.079,1.137V656l-.135,1.829-1.058,14.719-1.28,17.732-.366,4.994-.8,10.687v.135l-85.084.8-139.625,1.511v.668h-.111v-.891l.358-11.419.684-22.313.588-18.917.056-1.885a8.373,8.373,0,0,1,9.081-8.087c3.753.318,8.628.708,14.456,1.121l2.386.175c33.66,2.338,95.867,5.359,158.638,1.59,1.32-.072,2.648-.151,3.976-.247,9.733-.612,19.458-1.4,29.088-2.386a8.373,8.373,0,0,1,9.224,8.93Z" transform="translate(-150.95 -269.706)" opacity="0.1"/>
    <path id="Tracé_280" data-name="Tracé 280" d="M429.08,709.9v-.668l139.649-1.519,85.084-.8h.239v-.135l.8-10.687.342-4.771,1.3-17.979,1.026-14.234v-.35a8.441,8.441,0,0,0-.087-1.964.236.236,0,0,0,0-.079,8.262,8.262,0,0,0-1.59-3.69,8.381,8.381,0,0,0-7.49-3.181c-9.63.986-19.355,1.773-29.088,2.386-1.328.1-2.656.175-3.976.246-62.771,3.729-124.978.708-158.638-1.59l-2.386-.175c-5.829-.414-10.7-.8-14.456-1.121a8.381,8.381,0,0,0-8.938,6.783,8.752,8.752,0,0,0-.143,1.3l-.541,17.621-.74,22.321-.35,11.419v.891Z" transform="translate(-150.972 -270.532)" fill="#3f3d56"/>
    <path id="Tracé_281" data-name="Tracé 281" d="M657.771,662.725l-.978,12.19-1.455,18.17-.366,4.548-.8,10.186-.048.509v.135h0l-.119,1.177.087-1.177h-.231l-85.084.8L429.11,710.77v-.223l.39-11.419.8-22.313.509-14.83a5.057,5.057,0,0,1,2.433-4.175,4.969,4.969,0,0,1,3.006-.716c1.67.135,3.721.294,6.115.469,3.888.286,8.683.62,14.265.97,10.337.652,23.307,1.352,38.169,1.924,41.349,1.59,97.171,2.123,150.193-2.521,2.386-.207,4.851-.437,7.26-.668a4.978,4.978,0,0,1,2.767.525,4.1,4.1,0,0,1,.684.429,4.882,4.882,0,0,1,1.59,1.956,2.832,2.832,0,0,1,.2.485A4.993,4.993,0,0,1,657.771,662.725Z" transform="translate(-150.979 -272.071)" opacity="0.1"/>
    <path id="Tracé_282" data-name="Tracé 282" d="M367.779,677.87v2.537A4.874,4.874,0,0,1,365,684.812l-31.887.612a4.867,4.867,0,0,1-2.839-4.429v-2.385Z" transform="translate(-130.734 -276.33)" opacity="0.1"/>
    <path id="Tracé_283" data-name="Tracé 283" d="M287.9,513.794l-41.548.8V507.7l41.548-.8Z" transform="translate(-50.456 -103.817)" fill="#3f3d56"/>
    <path id="Tracé_284" data-name="Tracé 284" d="M287.9,513.794l-41.548.8V507.7l41.548-.8Z" transform="translate(-50.456 -103.817)" opacity="0.1"/>
    <path id="Tracé_285" data-name="Tracé 285" d="M289.9,513.794l-41.548.8V507.7l41.548-.8Z" transform="translate(-50.865 -103.817)" fill="#3f3d56"/>
    <g id="Groupe_129" data-name="Groupe 129" transform="translate(341.121 146.566)" opacity="0.1">
      <path id="Tracé_286" data-name="Tracé 286" d="M552.52,360.671a7.754,7.754,0,0,1-1.5-3.451,7.546,7.546,0,0,0,.334,3.658A7.159,7.159,0,0,0,552.52,360.671Z" transform="translate(-517.05 -357.22)"/>
      <path id="Tracé_287" data-name="Tracé 287" d="M540.154,367.442a27.951,27.951,0,0,1-.294-2.942c0,.978,0,1.964,0,2.95Z" transform="translate(-514.784 -358.711)"/>
      <path id="Tracé_288" data-name="Tracé 288" d="M621.716,399.849a14.586,14.586,0,0,1,.286-2.107,14.314,14.314,0,0,0,.636-3.729,4.9,4.9,0,0,0-.127-.843c-.135.732-.35,1.463-.509,2.187a15.221,15.221,0,0,0-.286,4.493Z" transform="translate(-531.538 -364.583)"/>
      <path id="Tracé_289" data-name="Tracé 289" d="M600.926,369.632l.867.628a15.669,15.669,0,0,0,2.044-1.765,2.918,2.918,0,0,0,.3-2.894,2.383,2.383,0,0,1-.3.509C602.858,367.365,600.7,368.057,600.926,369.632Z" transform="translate(-527.288 -358.936)"/>
      <path id="Tracé_290" data-name="Tracé 290" d="M518.582,380.29a9.793,9.793,0,0,0-.692,1.813,14.441,14.441,0,0,1,3.976-1.5Z" transform="translate(-510.284 -361.945)"/>
      <path id="Tracé_291" data-name="Tracé 291" d="M532.163,369.158a11.791,11.791,0,0,1-1.495-.978,3.377,3.377,0,0,0,.072.938,9.43,9.43,0,0,1,1.423.04Z" transform="translate(-512.9 -359.465)"/>
      <path id="Tracé_292" data-name="Tracé 292" d="M605.333,428.33c-.326,3.857-2.123,7.57-3.578,11.228a106.734,106.734,0,0,0-5.8,22.909c-1.105,6.99-2.386,14.925-8.349,18.8a23.856,23.856,0,0,1-5.431,2.385c-8.572,2.966-17.216,5.94-26.241,7.021s-18.5.135-26.368-4.366a15.9,15.9,0,0,1-5.709-5.033c-2.123-3.364-2.163-7.578-3.181-11.427a65.378,65.378,0,0,0-3.181-8.365c-1.757-4.278-3.109-8.747-4.453-13.144q-1.869-6.131-3.729-12.27a22.911,22.911,0,0,1-.906-3.777,14.252,14.252,0,0,0,.906,6.163q1.861,6.147,3.729,12.27c1.344,4.429,2.7,8.866,4.453,13.144a65.373,65.373,0,0,1,3.181,8.365c1,3.849,1.042,8.063,3.181,11.427a15.9,15.9,0,0,0,5.709,5.033c7.872,4.5,17.367,5.447,26.368,4.366s17.637-4.055,26.241-7.021a23.853,23.853,0,0,0,5.431-2.385c5.924-3.873,7.244-11.808,8.349-18.8a106.732,106.732,0,0,1,5.8-22.909c1.734-4.358,3.976-8.787,3.594-13.47C605.349,428.425,605.333,428.378,605.333,428.33Z" transform="translate(-508.324 -371.785)"/>
      <path id="Tracé_293" data-name="Tracé 293" d="M510.448,422.682v-.087a11.132,11.132,0,0,0-.366-4.175,21.142,21.142,0,0,1-.31-2.64,21.749,21.749,0,0,0,.31,5.026C510.209,421.426,510.352,422.054,510.448,422.682Z" transform="translate(-508.614 -369.214)"/>
      <path id="Tracé_294" data-name="Tracé 294" d="M512.962,398.789a22.057,22.057,0,0,1,2.075-2.918c-1.455,1.392-4.143.151-4.707-1.781a4.636,4.636,0,0,0,0,2.386A3.491,3.491,0,0,0,512.962,398.789Z" transform="translate(-508.703 -364.772)"/>
    </g>
    <path id="Tracé_295" data-name="Tracé 295" d="M763.151,656.57s2.521,9.145,0,17.1S763.151,656.57,763.151,656.57Z" transform="translate(-219.168 -271.967)" opacity="0.1"/>
    <path id="Tracé_296" data-name="Tracé 296" d="M776.392,668.3s1.058,11.609-1.328,13.669S776.392,668.3,776.392,668.3Z" transform="translate(-221.674 -274.37)" opacity="0.1"/>
    <line id="Ligne_1" data-name="Ligne 1" y1="0.795" x2="80.798" transform="translate(158.235 271.847)" fill="none" stroke="#2900ff" stroke-miterlimit="10" stroke-width="2"/>
    <line id="Ligne_2" data-name="Ligne 2" y1="0.787" x2="80.798" transform="translate(158.235 281.77)" fill="none" stroke="#2900ff" stroke-miterlimit="10" stroke-width="2"/>
    <line id="Ligne_3" data-name="Ligne 3" y1="0.795" x2="80.798" transform="translate(158.235 291.686)" fill="none" stroke="#2900ff" stroke-miterlimit="10" stroke-width="2"/>
  </g>
</svg>
