<svg id="positive-review" xmlns="http://www.w3.org/2000/svg" width="99" height="99" viewBox="0 0 99 99">
  <path id="Tracé_214" data-name="Tracé 214" d="M130.319,135.667h-23.2a1.45,1.45,0,0,0,0,2.9h23.2a1.45,1.45,0,0,0,0-2.9Z" transform="translate(-85.234 -109.435)" fill="#fff"/>
  <path id="Tracé_215" data-name="Tracé 215" d="M27.95,63.562a30.31,30.31,0,0,1-9.476-3.428,1.45,1.45,0,0,0-1.7.2,13.972,13.972,0,0,1-9.524,3.733,14.161,14.161,0,0,1-1.936-.132,16.972,16.972,0,0,0,6.2-8,1.45,1.45,0,0,0-.3-1.5A30.584,30.584,0,1,1,63.566,27.95a1.45,1.45,0,0,0,2.853-.521A33.485,33.485,0,1,0,8.464,55.734,14.065,14.065,0,0,1,.906,63.047a1.45,1.45,0,0,0,0,2.688,16.933,16.933,0,0,0,17.046-2.583,33.184,33.184,0,0,0,9.477,3.264,1.45,1.45,0,1,0,.521-2.853Z" fill="#fff"/>
  <path id="Tracé_216" data-name="Tracé 216" d="M107.116,195.667a1.45,1.45,0,0,0,0,2.9h16.4a1.45,1.45,0,0,0,0-2.9Z" transform="translate(-85.234 -157.833)" fill="#fff"/>
  <path id="Tracé_217" data-name="Tracé 217" d="M131.77,167.117a1.45,1.45,0,0,0-1.45-1.45h-23.2a1.45,1.45,0,0,0,0,2.9h23.2A1.45,1.45,0,0,0,131.77,167.117Z" transform="translate(-85.234 -133.634)" fill="#fff"/>
  <path id="Tracé_218" data-name="Tracé 218" d="M267.437,264.482a11.5,11.5,0,0,0-7.251,2.545,11.5,11.5,0,0,0-7.251-2.545,11.615,11.615,0,0,0-11.6,11.6c0,6.016,3.184,11.928,9.207,17.095a43.834,43.834,0,0,0,9.033,5.973,1.451,1.451,0,0,0,1.225,0,43.834,43.834,0,0,0,9.033-5.973c6.023-5.167,9.207-11.079,9.207-17.095A11.615,11.615,0,0,0,267.437,264.482Zm-7.251,31.731c-3-1.565-15.952-8.975-15.952-20.13A8.7,8.7,0,0,1,259.15,270a1.45,1.45,0,0,0,2.072,0,8.7,8.7,0,0,1,14.916,6.087C276.138,287.239,263.183,294.649,260.186,296.213Z" transform="translate(-194.669 -213.342)" fill="#fff"/>
  <path id="Tracé_219" data-name="Tracé 219" d="M231.728,228.713a14.067,14.067,0,0,1-7.558-7.313,33.43,33.43,0,1,0-9.488,7.418,16.932,16.932,0,0,0,17.047,2.583,1.45,1.45,0,0,0,0-2.688Zm-6.345,1.02A13.974,13.974,0,0,1,215.858,226a1.45,1.45,0,0,0-1.7-.2,30.619,30.619,0,1,1,7.264-5.7,1.45,1.45,0,0,0-.3,1.5,16.97,16.97,0,0,0,6.2,8A14.128,14.128,0,0,1,225.383,229.733Z" transform="translate(-133.634 -133.633)" fill="#fff"/>
</svg>
