<?xml version="1.0" encoding="iso-8859-1"?>
<!-- Generator: Adobe Illustrator 19.0.0, SVG Export Plug-In . SVG Version: 6.00 Build 0)  -->
<svg version="1.1" id="Capa_1" xmlns="http://www.w3.org/2000/svg" xmlns:xlink="http://www.w3.org/1999/xlink" x="0px" y="0px"
	 viewBox="0 0 512 512" style="enable-background:new 0 0 512 512;" xml:space="preserve">
<circle style="fill:#92D6F4;" cx="256" cy="256" r="256"/>
<path style="fill:#0999DB;" d="M505.724,312.53L321.28,128.086l-10.928,6.578l-44.578-45.452L149.667,422.788l88.59,88.59
	C244.12,511.779,250.034,512,256,512C377.959,512,479.986,426.713,505.724,312.53z"/>
<path style="fill:#FF9900;" d="M321.28,128.086H190.72l-41.053,76.82v217.882h212.667V204.906L321.28,128.086z"/>
<polygon style="fill:#FF7700;" points="321.28,128.086 256,128.086 256,422.788 362.333,422.788 362.333,204.906 "/>
<path style="fill:#FFFFFF;" d="M256,211.387c-11.471,0-20.802-9.332-20.802-20.802s9.332-20.802,20.802-20.802
	s20.802,9.332,20.802,20.802S267.471,211.387,256,211.387z"/>
<rect x="246.23" y="89.21" style="fill:#0773A4;" width="19.545" height="89.13"/>
<path style="fill:#FFFFFF;" d="M265.217,333.942v12.401h-15.753V334.5c-11.172-0.67-22.01-3.687-28.713-7.821l8.491-19.216
	c7.374,4.357,17.206,7.15,25.808,7.15c7.485,0,10.167-1.564,10.167-4.245c0-9.832-43.237-1.899-43.237-31.059
	c0-12.625,9.161-23.239,27.484-25.808v-12.178h15.753v11.955c8.268,0.782,16.312,2.905,22.68,6.48l-7.932,19.105
	c-7.709-3.91-14.971-5.81-21.786-5.81c-7.709,0-10.167,2.234-10.167,4.916c0,9.385,43.237,1.564,43.237,30.389
	C291.249,320.423,282.535,330.925,265.217,333.942z"/>
<g>
	<path style="fill:#FFF1AB;" d="M256,241.323v31.803c0.678-0.044,1.395-0.073,2.179-0.073c6.815,0,14.077,1.899,21.786,5.81
		l7.932-19.105c-6.368-3.575-14.412-5.698-22.68-6.48v-11.955H256z"/>
	<path style="fill:#FFF1AB;" d="M256,282.921v21.942c5.383,1.226,9.217,2.578,9.217,5.505c0,2.563-2.462,4.102-9.217,4.233v31.743
		h9.217v-12.401c17.317-3.017,26.032-13.519,26.032-25.585C291.249,287.444,268.494,285.82,256,282.921z"/>
</g>
<rect x="210.83" y="361.55" style="fill:#FFFFFF;" width="90.34" height="19.545"/>
<rect x="256" y="361.55" style="fill:#FFF1AB;" width="45.17" height="19.545"/>
<g>
</g>
<g>
</g>
<g>
</g>
<g>
</g>
<g>
</g>
<g>
</g>
<g>
</g>
<g>
</g>
<g>
</g>
<g>
</g>
<g>
</g>
<g>
</g>
<g>
</g>
<g>
</g>
<g>
</g>
</svg>
